<svg width="1399" height="373" viewBox="0 0 1399 373" fill="none" xmlns="http://www.w3.org/2000/svg">
<g opacity="0.5">
<path opacity="0.05" fill-rule="evenodd" clip-rule="evenodd" d="M158.064 365.048C145.764 376.08 126.859 375.089 115.779 362.832L35.1962 273.686C24.0549 261.361 25.0524 242.328 37.421 231.235L126.936 150.952C139.236 139.92 158.141 140.911 169.221 153.168L249.804 242.314C260.945 254.639 259.948 273.672 247.579 284.765L158.064 365.048Z" fill="#1849C6"/>
<path opacity="0.0535017" fill-rule="evenodd" clip-rule="evenodd" d="M96.8717 261.956C89.484 268.608 78.1026 268.011 71.4507 260.623L5.04436 186.872C-1.60756 179.484 -1.01109 168.103 6.37661 161.451L80.1283 95.0444C87.516 88.3924 98.8974 88.9889 105.549 96.3766L171.956 170.128C178.608 177.516 178.011 188.897 170.623 195.549L96.8717 261.956Z" fill="#1849C6"/>
</g>
<g opacity="0.5">
<path opacity="0.05" fill-rule="evenodd" clip-rule="evenodd" d="M1236.94 365.048C1249.24 376.08 1268.14 375.089 1279.22 362.832L1359.8 273.686C1370.95 261.361 1369.95 242.328 1357.58 231.235L1268.06 150.952C1255.76 139.92 1236.86 140.911 1225.78 153.168L1145.2 242.314C1134.05 254.639 1135.05 273.672 1147.42 284.765L1236.94 365.048Z" fill="#1849C6"/>
<path opacity="0.0535017" fill-rule="evenodd" clip-rule="evenodd" d="M1298.13 261.956C1305.52 268.608 1316.9 268.011 1323.55 260.623L1389.96 186.872C1396.61 179.484 1396.01 168.103 1388.62 161.451L1314.87 95.0444C1307.48 88.3924 1296.1 88.9889 1289.45 96.3766L1223.04 170.128C1216.39 177.516 1216.99 188.897 1224.38 195.549L1298.13 261.956Z" fill="#1849C6"/>
</g>
</svg>
